Coordinates
version=1
nRows=12
nColumns=24
inDegrees=yes

Units are S.I. units (second, meters, Newtons, ...)
Angles are in degrees.

endheader
time	pelvis_tilt	pelvis_list	pelvis_rotation	pelvis_tx	pelvis_ty	pelvis_tz	hip_flexion_r	hip_adduction_r	hip_rotation_r	knee_angle_r	ankle_angle_r	subtalar_angle_r	mtp_angle_r	hip_flexion_l	hip_adduction_l	hip_rotation_l	knee_angle_l	ankle_angle_l	subtalar_angle_l	mtp_angle_l	lumbar_extension	lumbar_bending	lumbar_rotation
      2.67500000	      6.77686054	      2.34516095	      1.49640426	     -0.13036344	      1.02523464	      0.00421662	     16.78428667	     -5.45734975	     -3.42936105	    -29.22988569	      7.92275140	     -4.68020084	     18.95742248	    -13.85568538	      4.12359228	     -8.57403025	     -1.39225395	     10.96599312	     11.07737142	      1.17572449	    -18.06852092	      0.13698030	     -1.87302142
      2.68000000	      6.82486646	      2.41634857	      1.52207616	     -0.12528404	      1.02455390	      0.00455391	     16.64594826	     -5.47816832	     -3.39015805	    -27.62296279	      7.84961800	     -4.41836236	     18.92976641	    -14.28541203	      4.16206319	     -8.41023201	     -1.29261682	     11.19344644	     11.05857903	      1.26354821	    -18.07775982	      0.05647252	     -1.96511364
      2.68500000	      6.78743542	      2.49464582	      1.54395181	     -0.12028098	      1.02371116	      0.00490077	     16.60185693	     -5.50806563	     -3.31276791	    -26.02341938	      7.74026637	     -4.13102281	     18.89999461	    -14.59364870	      4.21021543	     -8.22994104	     -1.24401358	     11.46515209	     10.97620643	      1.35940539	    -18.00052434	     -0.03490858	     -2.03206676
      2.69000000	      6.73236098	      2.59284450	      1.59196972	     -0.11531351	      1.02280167	      0.00518531	     16.56094490	     -5.57211417	     -3.23700232	    -24.42004308	      7.60860087	     -3.83794827	     18.86422831	    -14.87628492	      4.27581005	     -8.00090658	     -1.20275993	     11.73387629	     10.85189316	      1.47170683	    -17.90913044	     -0.13579920	     -2.15888085
      2.69500000	      6.66164182	      2.69515060	      1.66837307	     -0.11039082	      1.02183702	      0.00543918	     16.51830987	     -5.65286524	     -3.17480447	    -22.80855395	      7.45473534	     -3.53609971	     18.82676227	    -15.12557599	      4.33660965	     -7.72385481	     -1.18784255	     12.01415535	     10.70118802	      1.58935310	    -17.80551853	     -0.23438027	     -2.28736568
      2.70000000	      6.55884995	      2.81600112	      1.76697253	     -0.10552137	      1.02079367	      0.00565306	     16.50114219	     -5.76596118	     -3.11455454	    -21.20596762	      7.26964412	     -3.23690815	     18.78892708	    -15.31928762	      4.41058252	     -7.41170072	     -1.20905547	     12.30667858	     10.53431200	      1.70108139	    -17.67246989	     -0.34574169	     -2.42760315
      2.70500000	      6.43732989	      2.95579349	      1.91440825	     -0.10068960	      1.01968607	      0.00578761	     16.48860702	     -5.92080838	     -3.09233275	    -19.61619857	      7.08115109	     -2.93949840	     18.74697068	    -15.48553412	      4.49323827	     -7.02015608	     -1.23781672	     12.59260713	     10.31594113	      1.82982460	    -17.52690393	     -0.46389352	     -2.63897037
      2.71000000	      6.28379448	      3.10149284	      2.09236728	     -0.09587134	      1.01850293	      0.00587113	     16.49919302	     -6.09748403	     -3.08940835	    -18.04791260	      6.88588905	     -2.63479251	     18.69846706	    -15.61124293	      4.57596197	     -6.57694574	     -1.27600095	     12.87481685	     10.05649807	      1.98986099	    -17.34900595	     -0.58048621	     -2.89609192
      2.71500000	      6.12956722	      3.27284237	      2.29201670	     -0.09109506	      1.01728710	      0.00589852	     16.50887759	     -6.31994416	     -3.12948357	    -16.51666608	      6.67949503	     -2.28169727	     18.63015468	    -15.72090695	      4.68231676	     -6.08595902	     -1.34022230	     13.12106276	      9.71644416	      2.24993301	    -17.17701934	     -0.71629990	     -3.14896229
      2.72000000	      5.94467380	      3.41666329	      2.52723273	     -0.08631099	      1.01600950	      0.00592507	     16.53160498	     -6.51931674	     -3.19240844	    -15.00039018	      6.42778637	     -2.05202712	     18.57329417	    -15.77021423	      4.74241109	     -5.62255371	     -1.46312891	     13.48106342	      9.54713012	      2.40848008	    -16.97111463	     -0.81921962	     -3.41869898
      2.72500000	      5.75123609	      3.59202515	      2.78068056	     -0.08152057	      1.01468069	      0.00587264	     16.56969517	     -6.77237450	     -3.30405422	    -13.55404099	      6.19919131	     -1.74375753	     18.51301333	    -15.82250300	      4.83960661	     -5.08149004	     -1.56296439	     13.78724063	      9.23081337	      2.59429036	    -16.76067630	     -0.94620550	     -3.74594674
      2.73000000	      5.53854352	      3.79733543	      3.04357266	     -0.07678850	      1.01329511	      0.00581086	     16.65002537	     -7.06726575	     -3.44939706	    -12.19846952	      6.01186098	     -1.38300931	     18.38129366	    -15.83195062	      4.96608017	     -4.49317247	     -1.70406946	     14.06851680	      8.84340343	      3.06128358	    -16.53818959	     -1.10699866	     -4.03568010
